<?xml version="1.0" standalone="no"?>
<!DOCTYPE svg PUBLIC "-//W3C//DTD SVG 1.1//EN" "http://www.w3.org/Graphics/SVG/1.1/DTD/svg11.dtd" >
<svg xmlns="http://www.w3.org/2000/svg" xmlns:xlink="http://www.w3.org/1999/xlink" version="1.1" viewBox="-10 0 797 1000">
   <path fill="currentColor"
d="M777 678q-21 70 -68 139q-72 110 -144 110q-27 0 -78 -18q-48 -18 -83 -18t-80 19t-74 19q-85 0 -167.5 -145.5t-82.5 -280.5q0 -127 63 -208t159 -81q40 0 98 17t77 17q25 0 81 -19t96 -19q66 0 119 36q29 20 58 56q-44 37 -64 66q-36 52 -36 115q0 69 38 125t88 70z
M568 23q0 34 -16.5 76t-52.5 77q-30 30 -60 40q-20 7 -58 10q2 -83 43.5 -143t139.5 -83q1 2 2 6t1 6v6q0 4 1 5z" />
</svg>
