<?xml version="1.0" standalone="no"?>
<!DOCTYPE svg PUBLIC "-//W3C//DTD SVG 1.1//EN" "http://www.w3.org/Graphics/SVG/1.1/DTD/svg11.dtd" >
<svg xmlns="http://www.w3.org/2000/svg" xmlns:xlink="http://www.w3.org/1999/xlink" version="1.1" viewBox="-10 0 871 1000">
   <path fill="currentColor"
d="M367 229q-6 1 -9 6t-5.5 5.5t-2.5 -2.5q0 -7 11 -9h6zM415 237q-2 1 -6 -4t-10 -2q13 -6 18 1q2 3 -2 5zM219 475q-2 0 -3 2l-6 15q-1 3 -5 7.5t-1 5.5t7 -3t7 -10q1 -2 1 -4t1 -4l2 -4v-2zM696 676q0 -10 -30 -24l4 -15q2 -7 3 -15t1 -12t1 -12t-1 -11t-2 -12t-2 -12
t-3 -14t-3 -14q-5 -27 -26 -58t-40 -42q13 11 32 47q48 90 30 155q-6 22 -28 23q-18 2 -22 -10t-4 -47t-7 -60q-5 -21 -11 -38t-10 -25t-9 -14l-11 -12q-8 -35 -18 -58t-16 -31t-13 -19t-9 -22.5t4 -29.5t2 -27t-25 -14q-8 -2 -25 -10l-19 -9q-5 -1 -6 -15t4 -28t20 -15
q21 -2 29 16t2 33q-6 10 -1 15t16 0q8 -2 8 -20v-21q-3 -17 -8 -28t-12 -17t-13 -8t-15 -4q-59 4 -49 74q0 9 -1 9q-5 -5 -16 -6t-19 0t-9 -3q1 -31 -8 -50t-25 -19t-24 16t-9 33q0 8 2 20t7 21t9 8q6 -2 8.5 -7.5t-3.5 -4.5q-4 0 -9 -8t-5.5 -19.5t5.5 -20.5t19 -8
q9 0 15 12t5 22t0 12q-13 9 -17.5 16t-15.5 13t-12 7q-7 8 -8 16t4 10q8 4 14 10t9 11t10 7t20 4q26 1 57 -8q1 -1 13 -4t19 -6l16 -7q9 -4 12 -10q5 -8 11 -5q3 2 4 5t-2 7t-9 5q-11 3 -31 12t-26 11q-24 11 -38.5 13.5t-44.5 -1.5q-6 -1 -5 1t9 10q14 13 38 13q9 -1 20 -4
t20 -8l19 -10q10 -5 16 -9t14 -7t10 -1l5 6q0 1 -1 2l-2 3q-1 2 -3 3l-5 2q-3 1 -5 3t-6 3t-5 2q-16 8 -38 25t-37 24t-27 0.5t-35 -41.5q-13 -17 -14 -12q-1 2 -1 6q0 14 -8 31t-17 31t-11 33t6 35q-13 3 -35 50t-26 79q-2 10 -1 38t-3 33q-5 14 -17 2q-17 -17 -20 -53
q-1 -15 3 -31q2 -10 -1 -10l-2 3q-20 36 5 92q3 7 14 16l14 11q11 13 58 51l52 42q9 9 9 22t-7 24t-26 13l16 24q11 16 16 31t4 39q26 -13 4 -51q-2 -5 -6 -9t-5 -7l-1 -3q1 -3 7 -6t11 2q26 29 93 20q74 -9 98 -49q13 -21 19.5 -17t5.5 30q-1 13 -13 51q-5 13 -3 21t13 8
l8 -43q6 -33 8 -50q1 -12 -4 -41t-4 -54t13 -39q8 -10 28 -10q1 -21 20 -30t40 -6t33 13zM346 214q2 -9 -1 -17t-7.5 -8.5t-4.5 4.5q1 3 3 3q6 0 4 10t4 10q2 0 2 -2zM580 324q-1 -4 -4 -6t-7 -3t-7.5 -3t-5.5 -5t-4 -4t-3 -4t-3 -2l-2 1q-8 9 4 24t22 18q5 0 8 -5t2 -11z
M481 205q0 -6 -3 -11t-6 -7t-5 -1q-8 0 -4 4l2 1q8 2 10 17q0 2 4 -1zM511 75q0 -1 -2 -3t-5 -3t-5 -4q-8 -8 -13 -8t-7 4t0 7t-1 7q0 3 -3 6t-3 5t1.5 4.5t4.5 0.5t6 -5t8 -5q1 -1 5 -1t9 -1t5 -4zM826 824q11 6 17 13t7 14t-1 12t-9 13t-13 10t-17 11t-18 9t-17 9t-15 7
q-22 11 -48 31t-42 36q-10 9 -38 11t-50 -8q-10 -5 -16 -13t-10 -15t-12 -11t-26 -5h-104q-21 0 -33 2q-24 0 -44 8t-30 17t-24 16t-30 6.5t-62 -17.5t-82 -24l-56 -10q-10 -2 -22 -6t-19 -8t-9 -11q-6 -12 4 -37t10 -30q0 -9 -2 -23t-6 -23t-3 -21t6 -15q8 -6 32 -8t34 -6
q16 -10 23 -20t7 -28q11 41 -18 59q-18 11 -46 8q-19 -1 -24 6q-8 8 2 32q1 3 5 10t5 10t2 9t1 13.5t-10 26.5t-8 27.5t21 13.5q11 4 47 11l56 11q13 3 41 12t46 13t31 2q24 -3 36 -15t13 -27t-4 -33t-11 -29l-11 -20q-68 -106 -94 -135q-38 -42 -64 -23q-6 5 -8 -8
q-2 -9 -1 -21q1 -16 6 -29t13 -26t12.5 -24.5t14.5 -39.5t17 -43l16 -35q9 -20 22 -30q61 -79 69 -108q-6 -63 -9 -173q-1 -51 14 -85t59 -58q22 -12 58 -12q29 -1 59 7t50 24q31 23 51 67t16 83q-3 53 17 119q19 63 74 122q31 33 56 91t33 106q4 28 3 48t-7 30t-11 13
q-6 1 -13 10l-15 20q-8 11 -23 19t-34 8q-10 -1 -18 -3t-12 -8t-8 -8t-6 -12t-5 -11q-12 -20 -23 -16t-16 27t4 54q11 39 1 109q-6 36 10 56t41 19t47 -20q33 -28 50 -37t58 -24q29 -10 43 -20t10 -20t-14 -16t-28.5 -12.5t-27.5 -27.5t-9 -40t9 -27q1 18 4 32t9 23t11 15
t12 11t12 7t9 6z" />
</svg>
